<svg xmlns="http://www.w3.org/2000/svg" version="1" x="0" y="0" width="32" height="32" viewBox="0 0 32 32" xml:space="preserve" enable-background="new 0 0 31.938 31.937"><path d="M21 28H2V4h18v4l2-3V4c0-1-1-2-2-2H2C1 1 0 3 0 4v24c0 1 1 2 2 2h18c1 0 2-1 2-2v-8l-2 3V28L21 28zM19 8c0-1-1-1-1-1H6C5 7 4 8 4 8c0 1 1 1 1 1h12C18 10 19 9 19 8zM17 12H6c-1 0-1 1-1 1 0 1 1 1 1 1h9L17 12zM12 17H6c-1 0-1 1-1 1 0 1 1 1 1 1h5L12 17zM4 23c0 1 1 1 1 1h4c0 0 0 0 0 0l1-2H6C5 22 4 23 4 23zM23 8l-8 9 -1 1 5 4 1-1 8-9 1-1 -5-4L23 8zM22 13l-6 6c0 0 0 0 0 0 0 0 0 0 0 0l0 0c0 0 0 0 0-1l6-6c0 0 0 0 0 0 0 0 0 0 0 0l0 0C22 12 22 13 22 13zM24 10l0 0c0 0 0 0 0 1l0 0 0 0 0 0c0 0 0 0 0 0 0 0 0 0 0 0l0 0c0 0 0 0 0 0 0 0 0 0 0 0l0-1C23 10 24 10 24 10z"/><polygon points="24 7 24 7 28 11 29 11 30 10 25 6 "/><path d="M32 7c0 0 0-1 0-1l-3-2c0 0-1 0-1 0 0 0-1 0-1 0l-2 2 5 4 2-2C32 8 32 7 32 7zM30 8l-3-3 1-1 3 3L30 8zM12 25c0 0 0 0 1 0l5-2 -5-4 -2 6C11 25 11 25 12 25zM13 21l3 2 -2 1 -1-1L13 21z"/></svg>