<svg xmlns="http://www.w3.org/2000/svg" version="1" x="0" y="0" width="224" height="224" viewBox="0 0 224 224" xml:space="preserve" enable-background="new 0 0 224.33 224.33"><path d="M188 119c1-32-25-59-57-59 -32-1-59 25-59 57 0 1 0 1 0 2h0c0 0 0 0 0 0 0 2 0 3 0 5 0 1 0 2 0 3 0 1 0 2 0 3 0 0 0 1 0 1 0 0 0 0 0 0 1 3 2 6 3 9 0 0 0 0 0 0 2 4 4 8 6 12 0 0 0 0 0 0 6 8 13 14 22 19 0 0 0 0-1 0 7 4 15 6 23 6 0 0 0 0 0 0 1 0 1 0 2 0 7 0 14-1 20-3v0c5-2 10-4 14-7v0C177 156 187 139 188 119zM129 161c-20 0-37-15-41-34 0-1 0-1 0-2 0-1 0-1 0-2 0-2 0-3 0-5 0-1 0-1 0-2 0-2 0-4 1-6 0 0 0 0 0 0 1-4 2-8 4-12 0 0 0 0 0 0 7-15 23-25 40-25 6 0 12 2 18 4v0c5 3 10 6 14 11V90c7 8 11 18 11 29C173 143 153 162 129 161zM224 206l-13 13 -44-45 13-13L224 206zM66 62c-10 0-20 0-30 0 -7 0-7-12 0-12 10 0 20 0 30 0C74 50 74 62 66 62zM36 81c-7 0-7-12 0-12 10 0 20 0 30 0 7 0 7 12 0 12C56 81 46 81 36 81zM162 99v39c-3 6-8 10-14 14V85C154 88 159 93 162 99zM148 179c5-2 10-4 14-6v44H0V6h132l30 29v29c-4-3-9-5-14-6V42h-23V20H14v183h134V179zM121 151c-2 0-6 0-11 0 -5-3-9-7-12-12 11 0 20 0 23 0C128 139 128 151 121 151zM35 139c4 0 19 0 36 0 1 4 3 8 6 12 -18 0-36 0-41 0C27 151 27 139 35 139zM121 130c-4 0-15 0-28 0 -1-4-2-8-2-12 14 0 26 0 29 0C128 118 128 130 121 130zM35 118c4 0 17 0 32 0 0 4 0 8 1 12 -15 0-29 0-33 0C27 130 27 118 35 118zM121 111c-4 0-15 0-29 0 1-4 2-8 4-12 12 0 21 0 24 0C128 99 128 111 121 111zM35 99c4 0 19 0 35 0 -1 4-2 8-3 12 -15 0-28 0-33 0C27 111 27 99 35 99zM91 182c-7 0-7-12 0-12 1 0 2 0 3 0 9 6 19 10 30 11 -1 0-1 0-2 0C111 182 101 182 91 182z"/></svg>
